<svg width="24" height="24" viewBox="0 0 24 24" fill="none" xmlns="http://www.w3.org/2000/svg">
<path d="M9.04199 19.0029H14.958C14.573 21.2799 11.868 22.2859 10.088 20.8139C9.53339 20.3553 9.16214 19.7125 9.04199 19.0029Z" fill="#979B9F"/>
<path d="M12 2.00293C13.9892 2.00293 15.8968 2.79311 17.3033 4.19963C18.7099 5.60615 19.5 7.51381 19.5 9.50293V13.5029L20.918 16.6629C20.9825 16.8075 21.0099 16.9658 20.9976 17.1236C20.9853 17.2814 20.9338 17.4336 20.8478 17.5664C20.7618 17.6992 20.6439 17.8084 20.5049 17.8842C20.366 17.9599 20.2103 17.9997 20.052 17.9999H3.95204C3.79358 17.9999 3.63763 17.9602 3.49841 17.8845C3.35919 17.8088 3.24112 17.6995 3.15494 17.5665C3.06877 17.4335 3.01723 17.2811 3.00502 17.1231C2.99281 16.9651 3.02032 16.8066 3.08504 16.6619L4.50004 13.5019V9.48993L4.50504 9.23993C4.57345 7.29778 5.39304 5.45801 6.79114 4.10822C8.18924 2.75843 10.0567 2.00302 12 2.00293Z" fill="#C9CDD1"/>
</svg>
