<svg width="24" height="24" viewBox="0 0 24 24" fill="none" xmlns="http://www.w3.org/2000/svg">
<path d="M9.04199 19.0029H14.958C14.573 21.2799 11.868 22.2859 10.088 20.8139C9.53339 20.3553 9.16214 19.7125 9.04199 19.0029Z" fill="#B0B4B8"/>
<path d="M11.9998 2.00293C13.9889 2.00293 15.8966 2.79311 17.3031 4.19963C18.7096 5.60615 19.4998 7.51381 19.4998 9.50293V13.5029L20.9178 16.6629C20.9823 16.8075 21.0096 16.9658 20.9973 17.1236C20.9851 17.2814 20.9336 17.4336 20.8476 17.5664C20.7615 17.6992 20.6437 17.8084 20.5047 17.8842C20.3657 17.9599 20.2101 17.9997 20.0518 17.9999H3.9518C3.79333 17.9999 3.63739 17.9602 3.49817 17.8845C3.35895 17.8088 3.24087 17.6995 3.1547 17.5665C3.06852 17.4335 3.01699 17.2811 3.00478 17.1231C2.99257 16.9651 3.02008 16.8066 3.0848 16.6619L4.4998 13.5019V9.48993L4.5048 9.23993C4.57321 7.29778 5.3928 5.45801 6.7909 4.10822C8.189 2.75843 10.0564 2.00302 11.9998 2.00293Z" fill="#E9ECEF"/>
</svg>
