<svg width="24" height="24" viewBox="0 0 24 24" fill="none" xmlns="http://www.w3.org/2000/svg">
<path d="M9.04199 19.0031H14.958C14.573 21.2801 11.868 22.2861 10.088 20.8141C9.53339 20.3554 9.16214 19.7126 9.04199 19.0031Z" fill="#808080"/>
<path d="M12 2.00305C13.9891 2.00305 15.8968 2.79323 17.3033 4.19975C18.7098 5.60627 19.5 7.51393 19.5 9.50305V13.5031L20.918 16.6631C20.9825 16.8076 21.0098 16.9659 20.9975 17.1237C20.9853 17.2815 20.9338 17.4337 20.8477 17.5665C20.7617 17.6993 20.6439 17.8086 20.5049 17.8843C20.3659 17.96 20.2103 17.9998 20.052 18.0001H3.952C3.79353 18 3.63759 17.9604 3.49836 17.8847C3.35914 17.809 3.24107 17.6996 3.1549 17.5667C3.06872 17.4337 3.01718 17.2812 3.00498 17.1232C2.99277 16.9652 3.02028 16.8067 3.085 16.6621L4.5 13.5021V9.49005L4.505 9.24005C4.5734 7.2979 5.393 5.45813 6.7911 4.10834C8.1892 2.75855 10.0566 2.00314 12 2.00305Z" fill="#808080" fill-opacity="0.3"/>
<circle cx="17.5" cy="3.5" r="2.5" fill="#8FC600"/>
</svg>
