<svg width="14" height="13" viewBox="0 0 14 13" fill="none" xmlns="http://www.w3.org/2000/svg">
<path fill-rule="evenodd" clip-rule="evenodd" d="M0 4.90348C0 3.18726 9.13345e-08 2.32915 0.33405 1.67331C0.627866 1.09668 1.09668 0.627866 1.67331 0.33405C2.32915 -9.13345e-08 3.18726 0 4.90348 0H8.88756C10.6038 0 11.4619 -9.13345e-08 12.1177 0.33405C12.6944 0.627866 13.1632 1.09668 13.457 1.67331C13.791 2.32915 13.791 3.18726 13.791 4.90348V5.82289C13.791 7.5391 13.791 8.39721 13.457 9.05305C13.1632 9.62968 12.6944 10.0985 12.1177 10.3923C11.4619 10.7264 10.6038 10.7264 8.88756 10.7264H3.38187C3.17869 10.7264 2.98384 10.8072 2.84019 10.9509L1.30785 12.4832C0.825164 12.9659 0 12.6242 0 11.9415V4.90348ZM4.59702 3.06468C4.39381 3.06468 4.19894 3.1454 4.05525 3.28908C3.91157 3.43277 3.83085 3.62765 3.83085 3.83085C3.83085 4.03405 3.91157 4.22892 4.05525 4.37261C4.19894 4.51629 4.39381 4.59701 4.59702 4.59701H9.19403C9.39723 4.59701 9.59211 4.51629 9.73579 4.37261C9.87948 4.22892 9.9602 4.03405 9.9602 3.83085C9.9602 3.62765 9.87948 3.43277 9.73579 3.28908C9.59211 3.1454 9.39723 3.06468 9.19403 3.06468H4.59702ZM4.59702 6.12935C4.39381 6.12935 4.19894 6.21007 4.05525 6.35376C3.91157 6.49744 3.83085 6.69232 3.83085 6.89552C3.83085 7.09872 3.91157 7.2936 4.05525 7.43729C4.19894 7.58097 4.39381 7.66169 4.59702 7.66169H6.89552C7.09872 7.66169 7.2936 7.58097 7.43729 7.43729C7.58097 7.2936 7.66169 7.09872 7.66169 6.89552C7.66169 6.69232 7.58097 6.49744 7.43729 6.35376C7.2936 6.21007 7.09872 6.12935 6.89552 6.12935H4.59702Z" fill="#D4EA80"/>
</svg>
