<svg width="24" height="24" viewBox="0 0 24 24" fill="none" xmlns="http://www.w3.org/2000/svg">
<path d="M3 6.52401C3 6.12901 3.327 5.81001 3.73 5.81001H8.518C8.524 4.96801 8.616 3.81501 9.45 3.01701C10.137 2.36178 11.0506 1.9974 12 2.00001C12.9494 1.9974 13.863 2.36178 14.55 3.01701C15.384 3.81501 15.476 4.96801 15.482 5.81001H20.27C20.673 5.81001 21 6.13001 21 6.52401C20.9992 6.61891 20.9797 6.71271 20.9425 6.80003C20.9054 6.88735 20.8513 6.96646 20.7835 7.03281C20.7156 7.09916 20.6353 7.15145 20.5472 7.18667C20.4591 7.22189 20.3649 7.23934 20.27 7.23801H3.73C3.63511 7.23934 3.5409 7.22189 3.45278 7.18667C3.36466 7.15145 3.28437 7.09916 3.21653 7.03281C3.14869 6.96646 3.09463 6.88735 3.05747 6.80003C3.02031 6.71271 3.00078 6.61891 3 6.52401Z" fill="#C9CDD1"/>
<path d="M11.596 21.9999H12.404C15.187 21.9999 16.578 21.9999 17.484 21.1139C18.388 20.2279 18.48 18.7749 18.665 15.8689L18.932 11.6809C19.032 10.1039 19.082 9.31492 18.629 8.81592C18.175 8.31592 17.409 8.31592 15.876 8.31592H8.12396C6.59096 8.31592 5.82396 8.31592 5.37096 8.81592C4.91796 9.31592 4.96696 10.1039 5.06796 11.6809L5.33496 15.8689C5.51996 18.7749 5.61196 20.2289 6.51696 21.1139C7.42196 21.9999 8.81296 21.9999 11.596 21.9999Z" fill="#E9ECEF"/>
<path fill-rule="evenodd" clip-rule="evenodd" d="M9.42523 11.482C9.83823 11.438 10.2052 11.755 10.2462 12.189L10.7462 17.452C10.7872 17.885 10.4862 18.272 10.0752 18.316C9.66323 18.359 9.29523 18.043 9.25423 17.609L8.75423 12.346C8.71323 11.912 9.01423 11.525 9.42523 11.482ZM14.5752 11.482C14.9872 11.525 15.2882 11.912 15.2462 12.346L14.7462 17.609C14.7062 18.043 14.3382 18.359 13.9262 18.316C13.5132 18.272 13.2132 17.886 13.2542 17.452L13.7542 12.188C13.7952 11.755 14.1632 11.438 14.5742 11.481" fill="#C9CDD1"/>
</svg>
