<svg
  width="51"
  height="51"
  viewBox="0 0 51 51"
  xmlns="http://www.w3.org/2000/svg"
>
  <path
    d="M28.4835 8.54688C30.5724 9.75294 32.2267 11.2246 33.0167 13.0642C33.3096 13.629 33.5354 14.224 33.6769 14.8504C33.8231 14.8439 33.9698 14.8412 34.117 14.844C35.8618 14.849 37.6798 15.505 39.4846 16.547C41.5745 17.7537 43.2291 19.2261 44.0186 21.067C45.1726 23.2941 45.2549 26.0076 43.4431 29.1458C42.8279 30.2113 42.0879 30.9968 41.2771 31.5635C41.4976 33.2123 41.0866 35.1083 39.8196 37.3028C36.4967 43.0578 30.0051 41.5729 27.6643 40.2567C27.4732 40.1492 27.2669 40.0153 27.0494 39.8588C23.5242 43.9284 17.8028 42.6558 15.7253 41.4884C13.6804 40.3387 10.0601 36.1964 11.6612 31.2484C11.5419 31.1905 11.4288 31.1341 11.3254 31.076C9.03527 29.7884 4.42335 24.7476 7.72693 19.0256C9.86322 15.3256 12.4686 14.1366 15.2197 14.4365C15.3631 13.4906 15.6998 12.4994 16.2898 11.4774C18.2555 8.07282 20.6183 6.79234 23.1264 6.84321C24.8682 6.85062 26.6821 7.50691 28.4835 8.54688Z"
    fill="currentColor"
  />
  <path
    d="M28.6669 5.74075C29.1234 5.65418 33.881 8.30273 34.7573 10.8104C35.6336 13.318 34.0772 14.3975 31.8402 14.8218C29.6032 15.246 27.5327 14.8544 26.6564 12.3467C25.7802 9.83908 28.2105 5.82732 28.6669 5.74075Z"
    fill="currentColor"
  />
  <path
    d="M42.4356 13.8005C42.2823 13.3619 37.6098 10.5659 35 11.0609C32.3901 11.5558 32.2335 13.4435 32.9846 15.5929C33.7356 17.7423 35.1101 19.3396 37.7199 18.8446C40.3297 18.3497 42.5889 14.2391 42.4356 13.8005Z"
    fill="currentColor"
  />
  <path
    d="M19.9665 10.1251C19.8303 10.534 21.6395 14.1976 25.7888 15.8207C29.9381 17.4438 33.6416 17.7398 34.3094 15.7357C34.9773 13.7317 31.9535 11.3961 27.8042 9.77297C23.6549 8.14986 20.1028 9.71618 19.9665 10.1251Z"
    fill="currentColor"
  />
  <path
    d="M42.0808 22.8942C41.7947 23.2167 37.7174 23.4816 34.2371 20.6997C30.7568 17.9179 28.6487 14.8586 30.0503 13.2782C31.452 11.6978 34.9866 13.1487 38.4669 15.9305C41.9472 18.7123 42.3667 22.5717 42.0808 22.8942Z"
    fill="currentColor"
  />
  <path
    d="M28.2795 22.742C28.7106 22.991 33.9873 23.1635 35.9136 19.827C37.8399 16.4906 36.4168 13.5273 34.3039 12.3074C32.191 11.0875 28.9132 11.3368 26.9869 14.6732C25.0606 18.0096 27.8483 22.4931 28.2795 22.742Z"
    fill="currentColor"
  />
</svg>

