<svg width="17" height="17" viewBox="0 0 17 17" fill="none" xmlns="http://www.w3.org/2000/svg">
<path fill-rule="evenodd" clip-rule="evenodd" d="M12.3104 11.5607L16.4244 15.6757L15.5764 16.5237L11.4534 12.4007C10.0611 13.5487 8.27934 14.1147 6.4798 13.9806C4.68026 13.8465 3.00203 13.0227 1.79533 11.681C0.588628 10.3392 -0.0533137 8.58336 0.00347006 6.77973C0.0602539 4.97609 0.811376 3.26407 2.10009 2.00092C3.3888 0.737771 5.11553 0.021098 6.91994 0.000458431C8.72435 -0.0201812 10.467 0.656808 11.7843 1.89015C13.1016 3.12349 13.8916 4.81789 13.9897 6.61975C14.0877 8.42161 13.4861 10.1917 12.3104 11.5607ZM12.8004 6.99968C12.8004 5.46143 12.1893 3.98618 11.1016 2.89846C10.0139 1.81075 8.53864 1.19968 7.00039 1.19968C5.46213 1.19968 3.98688 1.81075 2.89917 2.89846C1.81146 3.98618 1.20039 5.46143 1.20039 6.99968C1.20039 8.53794 1.81146 10.0132 2.89917 11.1009C3.98688 12.1886 5.46213 12.7997 7.00039 12.7997C8.53864 12.7997 10.0139 12.1886 11.1016 11.1009C12.1893 10.0132 12.8004 8.53794 12.8004 6.99968Z" fill="#65696D"/>
</svg>
