<svg width="24" height="24" viewBox="0 0 24 24" fill="none" xmlns="http://www.w3.org/2000/svg">
<path opacity="0.5" d="M12 22C16.836 22 20.756 18.116 20.756 13.325C20.756 8.53502 16.836 4.65002 12 4.65002C7.164 4.65002 3.243 8.53402 3.243 13.325C3.243 18.115 7.163 22 12 22Z" fill="#DDEEB2"/>
<path d="M12 8.74695C12.402 8.74695 12.729 9.07095 12.729 9.46995V13.0259L14.948 15.2239C15.0154 15.2909 15.0689 15.3705 15.1055 15.4582C15.142 15.5459 15.1608 15.6399 15.1608 15.7349C15.1608 15.8299 15.142 15.924 15.1055 16.0117C15.0689 16.0994 15.0154 16.179 14.948 16.2459C14.8106 16.3818 14.6252 16.4579 14.432 16.4579C14.2388 16.4579 14.0534 16.3818 13.916 16.2459L11.483 13.8359C11.4157 13.7692 11.3622 13.6897 11.3256 13.6022C11.2891 13.5147 11.2702 13.4208 11.27 13.3259V9.46995C11.27 9.06995 11.596 8.74695 12 8.74695Z" fill="#8FC600"/>
<path fill-rule="evenodd" clip-rule="evenodd" d="M8.23999 2.33997C8.29057 2.42049 8.3247 2.51022 8.34042 2.60399C8.35613 2.69776 8.35312 2.79372 8.33155 2.88632C8.30998 2.97892 8.27028 3.06633 8.21475 3.14351C8.15921 3.22069 8.08894 3.2861 8.008 3.33598L4.11699 5.74597C3.95279 5.84774 3.75508 5.88066 3.56675 5.83761C3.37843 5.79455 3.21467 5.67898 3.11099 5.51597C3.06042 5.43546 3.02629 5.34573 3.01057 5.25196C2.99486 5.15819 2.99787 5.06223 3.01944 4.96963C3.04101 4.87703 3.08071 4.78962 3.13624 4.71244C3.19178 4.63526 3.26205 4.56985 3.34299 4.51997L7.23499 2.10997C7.3992 2.00821 7.59691 1.97529 7.78524 2.01834C7.97356 2.0614 8.13732 2.17697 8.24099 2.33997M15.76 2.33997C15.8637 2.17724 16.0272 2.06187 16.2153 2.01882C16.4034 1.97578 16.6009 2.00852 16.765 2.10997L20.657 4.51997C20.7379 4.56985 20.8082 4.63526 20.8637 4.71244C20.9193 4.78962 20.959 4.87703 20.9805 4.96963C21.0021 5.06223 21.0051 5.15819 20.9894 5.25196C20.9737 5.34573 20.9396 5.43546 20.889 5.51597C20.7853 5.67898 20.6216 5.79455 20.4332 5.83761C20.2449 5.88066 20.0472 5.84774 19.883 5.74597L15.992 3.33598C15.911 3.28618 15.8406 3.22083 15.785 3.14369C15.7293 3.06655 15.6895 2.97915 15.6679 2.88654C15.6462 2.79394 15.6431 2.69796 15.6588 2.60414C15.6744 2.51033 15.7085 2.42055 15.759 2.33997" fill="#8FC600"/>
</svg>
