<svg width="32" height="32" viewBox="0 0 32 32" fill="none" xmlns="http://www.w3.org/2000/svg">
<path d="M16 17.2222C18.6622 17.2222 21.0833 17.9933 22.8644 19.0788C23.7533 19.6233 24.5133 20.2622 25.0622 20.9566C25.6022 21.6411 26 22.4588 26 23.3333C26 24.2722 25.5433 25.0122 24.8856 25.5399C24.2633 26.0399 23.4422 26.3711 22.57 26.6022C20.8167 27.0655 18.4767 27.2222 16 27.2222C13.5233 27.2222 11.1833 27.0666 9.43 26.6022C8.55778 26.3711 7.73667 26.0399 7.11444 25.5399C6.45556 25.0111 6 24.2722 6 23.3333C6 22.4588 6.39778 21.6411 6.93778 20.9566C7.48667 20.2622 8.24556 19.6233 9.13556 19.0788C10.9167 17.9933 13.3389 17.2222 16 17.2222Z" fill="#65696D"/>
<path d="M16.0084 5C20.2851 5 22.9584 9.63 20.8195 13.3333C20.3319 14.1779 19.6306 14.8792 18.7861 15.3668C17.9416 15.8544 16.9836 16.1111 16.0084 16.1111C11.7317 16.1111 9.05841 11.4811 11.1973 7.77778C11.6849 6.93325 12.3862 6.23194 13.2307 5.74434C14.0752 5.25674 15.0332 5.00002 16.0084 5Z" fill="#65696D"/>
</svg>
